<svg xmlns="http://www.w3.org/2000/svg" viewBox="0 0 512 512" fill="currentColor">
  <path d="M440.8 137.6c-12.5 12.5-32.8 12.5-45.3 0s-12.5-32.8 0-45.3l64-64c12.5-12.5 32.8-12.5 45.3 0s12.5 32.8 0 45.3l-64 64zm-301.5-45.3c-12.5 12.5-32.8 12.5-45.3 0s-12.5-32.8 0-45.3l64-64c12.5-12.5 32.8-12.5 45.3 0s12.5 32.8 0 45.3l-64 64zm338.7 32c0 17.7-14.3 32-32 32s-32-14.3-32-32V32c0-17.7 14.3-32 32-32s32 14.3 32 32v92.3zm-256 0c0 17.7-14.3 32-32 32s-32-14.3-32-32V32c0-17.7 14.3-32 32-32s32 14.3 32 32v92.3zM200 160c0-13.3 10.7-24 24-24h64c13.3 0 24 10.7 24 24s-10.7 24-24 24h-9.3c-.2 24.8-3.6 55.8-15.2 79.2-11.3 22.9-30.3 40.8-62.5 40.8-13.3 0-24-10.7-24-24s10.7-24 24-24c14.9 0 22.1-4.8 28.6-17.9 6.5-13.1 10.5-32.9 10.5-54.1h-16c-13.3 0-24-10.7-24-24z"/>
</svg>