<svg xmlns="http://www.w3.org/2000/svg" viewBox="0 0 512 512" fill="currentColor">
  <path d="M288 96c0-17.7 14.3-32 32-32s32 14.3 32 32s-14.3 32-32 32c-2 0-4-.2-5.9-.5c-15 14.9-23.5 35-24 56.1L288 192c0 52.9-43.1 96-96 96c-30.4 0-57.5-14.2-75-36.3c-17.5 22.1-44.6 36.3-75 36.3c-53 0-96-43-96-96s43-96 96-96c30.4 0 57.5 14.2 75 36.3c17.5-22.1 44.6-36.3 75-36.3c2.7 0 5.4 .1 8 .3V64c0-17.7 14.3-32 32-32s32 14.3 32 32s-14.3 32-32 32c-2 0-4-.2-5.9-.5C211 110.4 202.5 130.5 202 151.7l-2 40.3c0 17.7 14.3 32 32 32s32-14.3 32-32l2-40.3c.5-21.2 9-41.3 24-56.2c1.9 .3 3.9 .5 5.9 .5c17.7 0 32-14.3 32-32zM72 192c0 17.7 14.3 32 32 32s32-14.3 32-32s-14.3-32-32-32s-32 14.3-32 32zm160 0c0-17.7-14.3-32-32-32s-32 14.3-32 32s14.3 32 32 32s32-14.3 32-32zM32 416c0-17.7 14.3-32 32-32H448c17.7 0 32 14.3 32 32s-14.3 32-32 32H64c-17.7 0-32-14.3-32-32z"/>
</svg>