<svg xmlns="http://www.w3.org/2000/svg" viewBox="0 0 512 512" fill="currentColor">
  <path d="M255.1 96c-26.5 0-48 21.5-48 48s21.5 48 48 48c15 0 28.3-6.9 37.1-17.6 7.3 10.6 18.1 18.5 30.9 21.9V352h16c22.1 0 40 17.9 40 40s-17.9 40-40 40h-16c-22.1 0-40-17.9-40-40v-8c0-13.3-10.7-24-24-24s-24 10.7-24 24v8c0 48.6 39.4 88 88 88h16c48.6 0 88-39.4 88-88s-39.4-88-88-88h-16V192c0-26.5-21.5-48-48-48c-26.5 0-48 21.5-48 48s21.5 48 48 48c8.6 0 16.7-2.3 23.7-6.3C299.4 193.5 288.7 192 277.1 192c-8.8 0-16-7.2-16-16s7.2-16 16-16c8.8 0 16 7.2 16 16c0 8.8-7.2 16-16 16c-8.1 0-14.9-6.1-15.9-14c-1.6 .7-3.2 1.3-4.9 1.8c-3.6 1-7.4 1.5-11.2 1.5c-26.5 0-48-21.5-48-48s21.5-48 48-48c26.5 0 48 21.5 48 48c0 3.9-.5 7.7-1.4 11.3C304.4 130.9 320 110.2 320 86c0-30.9-25.1-56-56-56h-32c-30.9 0-56 25.1-56 56c0 24.2 15.6 44.9 37.3 52.7c-.9-3.6-1.3-7.4-1.3-11.3c0-26.5 21.5-48 48-48c26.5 0 48 21.5 48 48c0 26.5-21.5 48-48 48c-3.8 0-7.5-.5-11.1-1.4c-1.7-.5-3.4-1.1-5-1.8c-1 7.9-7.8 14-15.9 14c-8.8 0-16-7.2-16-16s7.2-16 16-16c8.8 0 16 7.2 16 16c0 8.8-7.2 16-16 16c-11.6 0-22.3 1.5-31.7 4.1c7-4 15.1-6.3 23.7-6.3c26.5 0 48-21.5 48-48s-21.5-48-48-48c-26.5 0-48 21.5-48 48c0 26.5 21.5 48 48 48c12.8 0 24.4-5 33-13.2c8.7 10.7 22 17.6 37 17.6c26.5 0 48-21.5 48-48s-21.5-48-48-48z"/>
</svg>