<svg width="24" height="24" viewBox="0 0 24 24" fill="none" xmlns="http://www.w3.org/2000/svg">
  <circle cx="12" cy="12" r="10" fill="#8b5cf6" />
  <path d="M12 2C17.523 2 22 6.477 22 12C22 17.523 17.523 22 12 22C6.477 22 2 17.523 2 12C2 6.477 6.477 2 12 2ZM12 4C7.582 4 4 7.582 4 12C4 16.418 7.582 20 12 20C16.418 20 20 16.418 20 12C20 7.582 16.418 4 12 4ZM12 8C13.1046 8 14 8.89543 14 10C14 10.2652 13.9265 10.5196 13.7929 10.7322C14.4714 11.1899 14.9337 11.9022 14.9932 12.7236C14.5317 12.902 14 13 14 13C14 13 12.5 13 12 13C11.5 13 10 13 10 13C10 13 9.4683 12.902 9.00683 12.7236C9.06631 11.9022 9.52864 11.1899 10.2071 10.7322C10.0735 10.5196 10 10.2652 10 10C10 8.89543 10.8954 8 12 8Z" fill="#e91e63" />
</svg>